<svg class="rich-terminal" viewBox="0 0 1238 782.0" xmlns="http://www.w3.org/2000/svg">
    <!-- Generated with Rich https://www.textualize.io -->
    <style>

    @font-face {
        font-family: "Fira Code";
        src: local("FiraCode-Regular"),
                url("https://cdnjs.cloudflare.com/ajax/libs/firacode/6.2.0/woff2/FiraCode-Regular.woff2") format("woff2"),
                url("https://cdnjs.cloudflare.com/ajax/libs/firacode/6.2.0/woff/FiraCode-Regular.woff") format("woff");
        font-style: normal;
        font-weight: 400;
    }
    @font-face {
        font-family: "Fira Code";
        src: local("FiraCode-Bold"),
                url("https://cdnjs.cloudflare.com/ajax/libs/firacode/6.2.0/woff2/FiraCode-Bold.woff2") format("woff2"),
                url("https://cdnjs.cloudflare.com/ajax/libs/firacode/6.2.0/woff/FiraCode-Bold.woff") format("woff");
        font-style: bold;
        font-weight: 700;
    }

    .terminal-2316321423-matrix {
        font-family: "Noto Sans Mono CJK SC", "WenQuanYi Micro Hei Mono", "Fira Code", monospace;
        font-size: 20px;
        line-height: 24.4px;
        font-variant-east-asian: full-width;
    }

    .terminal-2316321423-title {
        font-size: 18px;
        font-weight: bold;
        font-family: arial;
    }

    .terminal-2316321423-r1 { fill: #2d2d2d }
.terminal-2316321423-r2 { fill: #c5c8c6 }
.terminal-2316321423-r3 { fill: #121212 }
.terminal-2316321423-r4 { fill: #e0e0e0;font-weight: bold }
.terminal-2316321423-r5 { fill: #0d0d0d }
.terminal-2316321423-r6 { fill: #e0e0e0 }
.terminal-2316321423-r7 { fill: #e0e0e0;font-style: italic; }
.terminal-2316321423-r8 { fill: #e0e0e0;font-weight: bold;text-decoration: underline; }
.terminal-2316321423-r9 { fill: #f4005f }
.terminal-2316321423-r10 { fill: #000000 }
    </style>

    <defs>
    <clipPath id="terminal-2316321423-clip-terminal">
      <rect x="0" y="0" width="1219.0" height="731.0" />
    </clipPath>
    <clipPath id="terminal-2316321423-line-0">
    <rect x="0" y="1.5" width="1220" height="24.65"/>
            </clipPath>
<clipPath id="terminal-2316321423-line-1">
    <rect x="0" y="25.9" width="1220" height="24.65"/>
            </clipPath>
<clipPath id="terminal-2316321423-line-2">
    <rect x="0" y="50.3" width="1220" height="24.65"/>
            </clipPath>
<clipPath id="terminal-2316321423-line-3">
    <rect x="0" y="74.7" width="1220" height="24.65"/>
            </clipPath>
<clipPath id="terminal-2316321423-line-4">
    <rect x="0" y="99.1" width="1220" height="24.65"/>
            </clipPath>
<clipPath id="terminal-2316321423-line-5">
    <rect x="0" y="123.5" width="1220" height="24.65"/>
            </clipPath>
<clipPath id="terminal-2316321423-line-6">
    <rect x="0" y="147.9" width="1220" height="24.65"/>
            </clipPath>
<clipPath id="terminal-2316321423-line-7">
    <rect x="0" y="172.3" width="1220" height="24.65"/>
            </clipPath>
<clipPath id="terminal-2316321423-line-8">
    <rect x="0" y="196.7" width="1220" height="24.65"/>
            </clipPath>
<clipPath id="terminal-2316321423-line-9">
    <rect x="0" y="221.1" width="1220" height="24.65"/>
            </clipPath>
<clipPath id="terminal-2316321423-line-10">
    <rect x="0" y="245.5" width="1220" height="24.65"/>
            </clipPath>
<clipPath id="terminal-2316321423-line-11">
    <rect x="0" y="269.9" width="1220" height="24.65"/>
            </clipPath>
<clipPath id="terminal-2316321423-line-12">
    <rect x="0" y="294.3" width="1220" height="24.65"/>
            </clipPath>
<clipPath id="terminal-2316321423-line-13">
    <rect x="0" y="318.7" width="1220" height="24.65"/>
            </clipPath>
<clipPath id="terminal-2316321423-line-14">
    <rect x="0" y="343.1" width="1220" height="24.65"/>
            </clipPath>
<clipPath id="terminal-2316321423-line-15">
    <rect x="0" y="367.5" width="1220" height="24.65"/>
            </clipPath>
<clipPath id="terminal-2316321423-line-16">
    <rect x="0" y="391.9" width="1220" height="24.65"/>
            </clipPath>
<clipPath id="terminal-2316321423-line-17">
    <rect x="0" y="416.3" width="1220" height="24.65"/>
            </clipPath>
<clipPath id="terminal-2316321423-line-18">
    <rect x="0" y="440.7" width="1220" height="24.65"/>
            </clipPath>
<clipPath id="terminal-2316321423-line-19">
    <rect x="0" y="465.1" width="1220" height="24.65"/>
            </clipPath>
<clipPath id="terminal-2316321423-line-20">
    <rect x="0" y="489.5" width="1220" height="24.65"/>
            </clipPath>
<clipPath id="terminal-2316321423-line-21">
    <rect x="0" y="513.9" width="1220" height="24.65"/>
            </clipPath>
<clipPath id="terminal-2316321423-line-22">
    <rect x="0" y="538.3" width="1220" height="24.65"/>
            </clipPath>
<clipPath id="terminal-2316321423-line-23">
    <rect x="0" y="562.7" width="1220" height="24.65"/>
            </clipPath>
<clipPath id="terminal-2316321423-line-24">
    <rect x="0" y="587.1" width="1220" height="24.65"/>
            </clipPath>
<clipPath id="terminal-2316321423-line-25">
    <rect x="0" y="611.5" width="1220" height="24.65"/>
            </clipPath>
<clipPath id="terminal-2316321423-line-26">
    <rect x="0" y="635.9" width="1220" height="24.65"/>
            </clipPath>
<clipPath id="terminal-2316321423-line-27">
    <rect x="0" y="660.3" width="1220" height="24.65"/>
            </clipPath>
<clipPath id="terminal-2316321423-line-28">
    <rect x="0" y="684.7" width="1220" height="24.65"/>
            </clipPath>
    </defs>

    <rect fill="#292929" stroke="rgba(255,255,255,0.35)" stroke-width="1" x="1" y="1" width="1236" height="780" rx="8"/><text class="terminal-2316321423-title" fill="#c5c8c6" text-anchor="middle" x="618" y="27">display_basic</text>
            <g transform="translate(26,22)">
            <circle cx="0" cy="0" r="7" fill="#ff5f57"/>
            <circle cx="22" cy="0" r="7" fill="#febc2e"/>
            <circle cx="44" cy="0" r="7" fill="#28c840"/>
            </g>
        
    <g transform="translate(9, 41)" clip-path="url(#terminal-2316321423-clip-terminal)">
    <rect fill="#1e1e1e" x="0" y="1.5" width="195.2" height="24.65" shape-rendering="crispEdges"/><rect fill="#121212" x="195.2" y="1.5" width="1000.4" height="24.65" shape-rendering="crispEdges"/><rect fill="#003054" x="1195.6" y="1.5" width="24.4" height="24.65" shape-rendering="crispEdges"/><rect fill="#1e1e1e" x="0" y="25.9" width="183" height="24.65" shape-rendering="crispEdges"/><rect fill="#1e1e1e" x="183" y="25.9" width="12.2" height="24.65" shape-rendering="crispEdges"/><rect fill="#121212" x="195.2" y="25.9" width="1000.4" height="24.65" shape-rendering="crispEdges"/><rect fill="#003054" x="1195.6" y="25.9" width="24.4" height="24.65" shape-rendering="crispEdges"/><rect fill="#1e1e1e" x="0" y="50.3" width="195.2" height="24.65" shape-rendering="crispEdges"/><rect fill="#121212" x="195.2" y="50.3" width="1000.4" height="24.65" shape-rendering="crispEdges"/><rect fill="#003054" x="1195.6" y="50.3" width="24.4" height="24.65" shape-rendering="crispEdges"/><rect fill="#1e1e1e" x="0" y="74.7" width="1195.6" height="24.65" shape-rendering="crispEdges"/><rect fill="#003054" x="1195.6" y="74.7" width="24.4" height="24.65" shape-rendering="crispEdges"/><rect fill="#1e1e1e" x="0" y="99.1" width="12.2" height="24.65" shape-rendering="crispEdges"/><rect fill="#1e1e1e" x="12.2" y="99.1" width="12.2" height="24.65" shape-rendering="crispEdges"/><rect fill="#1e1e1e" x="24.4" y="99.1" width="1146.8" height="24.65" shape-rendering="crispEdges"/><rect fill="#1e1e1e" x="1171.2" y="99.1" width="12.2" height="24.65" shape-rendering="crispEdges"/><rect fill="#1e1e1e" x="1183.4" y="99.1" width="12.2" height="24.65" shape-rendering="crispEdges"/><rect fill="#003054" x="1195.6" y="99.1" width="24.4" height="24.65" shape-rendering="crispEdges"/><rect fill="#1e1e1e" x="0" y="123.5" width="12.2" height="24.65" shape-rendering="crispEdges"/><rect fill="#1e1e1e" x="12.2" y="123.5" width="12.2" height="24.65" shape-rendering="crispEdges"/><rect fill="#1e1e1e" x="24.4" y="123.5" width="12.2" height="24.65" shape-rendering="crispEdges"/><rect fill="#1e1e1e" x="36.6" y="123.5" width="12.2" height="24.65" shape-rendering="crispEdges"/><rect fill="#1e1e1e" x="48.8" y="123.5" width="500.2" height="24.65" shape-rendering="crispEdges"/><rect fill="#1e1e1e" x="549" y="123.5" width="97.6" height="24.65" shape-rendering="crispEdges"/><rect fill="#1e1e1e" x="646.6" y="123.5" width="500.2" height="24.65" shape-rendering="crispEdges"/><rect fill="#1e1e1e" x="1146.8" y="123.5" width="12.2" height="24.65" shape-rendering="crispEdges"/><rect fill="#1e1e1e" x="1159" y="123.5" width="12.2" height="24.65" shape-rendering="crispEdges"/><rect fill="#1e1e1e" x="1171.2" y="123.5" width="12.2" height="24.65" shape-rendering="crispEdges"/><rect fill="#1e1e1e" x="1183.4" y="123.5" width="12.2" height="24.65" shape-rendering="crispEdges"/><rect fill="#003054" x="1195.6" y="123.5" width="24.4" height="24.65" shape-rendering="crispEdges"/><rect fill="#1e1e1e" x="0" y="147.9" width="12.2" height="24.65" shape-rendering="crispEdges"/><rect fill="#1e1e1e" x="12.2" y="147.9" width="12.2" height="24.65" shape-rendering="crispEdges"/><rect fill="#1e1e1e" x="24.4" y="147.9" width="1146.8" height="24.65" shape-rendering="crispEdges"/><rect fill="#1e1e1e" x="1171.2" y="147.9" width="12.2" height="24.65" shape-rendering="crispEdges"/><rect fill="#1e1e1e" x="1183.4" y="147.9" width="12.2" height="24.65" shape-rendering="crispEdges"/><rect fill="#003054" x="1195.6" y="147.9" width="24.4" height="24.65" shape-rendering="crispEdges"/><rect fill="#1e1e1e" x="0" y="172.3" width="12.2" height="24.65" shape-rendering="crispEdges"/><rect fill="#1e1e1e" x="12.2" y="172.3" width="12.2" height="24.65" shape-rendering="crispEdges"/><rect fill="#1e1e1e" x="24.4" y="172.3" width="1146.8" height="24.65" shape-rendering="crispEdges"/><rect fill="#1e1e1e" x="1171.2" y="172.3" width="12.2" height="24.65" shape-rendering="crispEdges"/><rect fill="#1e1e1e" x="1183.4" y="172.3" width="12.2" height="24.65" shape-rendering="crispEdges"/><rect fill="#003054" x="1195.6" y="172.3" width="24.4" height="24.65" shape-rendering="crispEdges"/><rect fill="#1e1e1e" x="0" y="196.7" width="12.2" height="24.65" shape-rendering="crispEdges"/><rect fill="#1e1e1e" x="12.2" y="196.7" width="12.2" height="24.65" shape-rendering="crispEdges"/><rect fill="#1e1e1e" x="24.4" y="196.7" width="256.2" height="24.65" shape-rendering="crispEdges"/><rect fill="#1e1e1e" x="280.6" y="196.7" width="231.8" height="24.65" shape-rendering="crispEdges"/><rect fill="#1e1e1e" x="512.4" y="196.7" width="658.8" height="24.65" shape-rendering="crispEdges"/><rect fill="#1e1e1e" x="1171.2" y="196.7" width="12.2" height="24.65" shape-rendering="crispEdges"/><rect fill="#1e1e1e" x="1183.4" y="196.7" width="12.2" height="24.65" shape-rendering="crispEdges"/><rect fill="#003054" x="1195.6" y="196.7" width="24.4" height="24.65" shape-rendering="crispEdges"/><rect fill="#1e1e1e" x="0" y="221.1" width="12.2" height="24.65" shape-rendering="crispEdges"/><rect fill="#1e1e1e" x="12.2" y="221.1" width="12.2" height="24.65" shape-rendering="crispEdges"/><rect fill="#1e1e1e" x="24.4" y="221.1" width="158.6" height="24.65" shape-rendering="crispEdges"/><rect fill="#1e1e1e" x="183" y="221.1" width="390.4" height="24.65" shape-rendering="crispEdges"/><rect fill="#1e1e1e" x="573.4" y="221.1" width="597.8" height="24.65" shape-rendering="crispEdges"/><rect fill="#1e1e1e" x="1171.2" y="221.1" width="12.2" height="24.65" shape-rendering="crispEdges"/><rect fill="#1e1e1e" x="1183.4" y="221.1" width="12.2" height="24.65" shape-rendering="crispEdges"/><rect fill="#003054" x="1195.6" y="221.1" width="24.4" height="24.65" shape-rendering="crispEdges"/><rect fill="#1e1e1e" x="0" y="245.5" width="12.2" height="24.65" shape-rendering="crispEdges"/><rect fill="#1e1e1e" x="12.2" y="245.5" width="12.2" height="24.65" shape-rendering="crispEdges"/><rect fill="#1e1e1e" x="24.4" y="245.5" width="1146.8" height="24.65" shape-rendering="crispEdges"/><rect fill="#1e1e1e" x="1171.2" y="245.5" width="12.2" height="24.65" shape-rendering="crispEdges"/><rect fill="#1e1e1e" x="1183.4" y="245.5" width="12.2" height="24.65" shape-rendering="crispEdges"/><rect fill="#003054" x="1195.6" y="245.5" width="24.4" height="24.65" shape-rendering="crispEdges"/><rect fill="#1e1e1e" x="0" y="269.9" width="12.2" height="24.65" shape-rendering="crispEdges"/><rect fill="#1e1e1e" x="12.2" y="269.9" width="12.2" height="24.65" shape-rendering="crispEdges"/><rect fill="#1e1e1e" x="24.4" y="269.9" width="0" height="24.65" shape-rendering="crispEdges"/><rect fill="#1e1e1e" x="24.4" y="269.9" width="1146.8" height="24.65" shape-rendering="crispEdges"/><rect fill="#1e1e1e" x="1171.2" y="269.9" width="12.2" height="24.65" shape-rendering="crispEdges"/><rect fill="#1e1e1e" x="1183.4" y="269.9" width="12.2" height="24.65" shape-rendering="crispEdges"/><rect fill="#003054" x="1195.6" y="269.9" width="24.4" height="24.65" shape-rendering="crispEdges"/><rect fill="#1e1e1e" x="0" y="294.3" width="12.2" height="24.65" shape-rendering="crispEdges"/><rect fill="#1e1e1e" x="12.2" y="294.3" width="12.2" height="24.65" shape-rendering="crispEdges"/><rect fill="#1e1e1e" x="24.4" y="294.3" width="512.4" height="24.65" shape-rendering="crispEdges"/><rect fill="#1e1e1e" x="536.8" y="294.3" width="122" height="24.65" shape-rendering="crispEdges"/><rect fill="#1e1e1e" x="658.8" y="294.3" width="512.4" height="24.65" shape-rendering="crispEdges"/><rect fill="#1e1e1e" x="1171.2" y="294.3" width="12.2" height="24.65" shape-rendering="crispEdges"/><rect fill="#1e1e1e" x="1183.4" y="294.3" width="12.2" height="24.65" shape-rendering="crispEdges"/><rect fill="#003054" x="1195.6" y="294.3" width="24.4" height="24.65" shape-rendering="crispEdges"/><rect fill="#1e1e1e" x="0" y="318.7" width="12.2" height="24.65" shape-rendering="crispEdges"/><rect fill="#1e1e1e" x="12.2" y="318.7" width="12.2" height="24.65" shape-rendering="crispEdges"/><rect fill="#1e1e1e" x="24.4" y="318.7" width="1146.8" height="24.65" shape-rendering="crispEdges"/><rect fill="#1e1e1e" x="1171.2" y="318.7" width="12.2" height="24.65" shape-rendering="crispEdges"/><rect fill="#1e1e1e" x="1183.4" y="318.7" width="12.2" height="24.65" shape-rendering="crispEdges"/><rect fill="#003054" x="1195.6" y="318.7" width="24.4" height="24.65" shape-rendering="crispEdges"/><rect fill="#1e1e1e" x="0" y="343.1" width="12.2" height="24.65" shape-rendering="crispEdges"/><rect fill="#1e1e1e" x="12.2" y="343.1" width="12.2" height="24.65" shape-rendering="crispEdges"/><rect fill="#1e1e1e" x="24.4" y="343.1" width="24.4" height="24.65" shape-rendering="crispEdges"/><rect fill="#1e1e1e" x="48.8" y="343.1" width="207.4" height="24.65" shape-rendering="crispEdges"/><rect fill="#1e1e1e" x="256.2" y="343.1" width="12.2" height="24.65" shape-rendering="crispEdges"/><rect fill="#1e1e1e" x="268.4" y="343.1" width="292.8" height="24.65" shape-rendering="crispEdges"/><rect fill="#1e1e1e" x="561.2" y="343.1" width="12.2" height="24.65" shape-rendering="crispEdges"/><rect fill="#1e1e1e" x="573.4" y="343.1" width="524.6" height="24.65" shape-rendering="crispEdges"/><rect fill="#1e1e1e" x="1098" y="343.1" width="48.8" height="24.65" shape-rendering="crispEdges"/><rect fill="#1e1e1e" x="1146.8" y="343.1" width="24.4" height="24.65" shape-rendering="crispEdges"/><rect fill="#1e1e1e" x="1171.2" y="343.1" width="12.2" height="24.65" shape-rendering="crispEdges"/><rect fill="#1e1e1e" x="1183.4" y="343.1" width="12.2" height="24.65" shape-rendering="crispEdges"/><rect fill="#003054" x="1195.6" y="343.1" width="24.4" height="24.65" shape-rendering="crispEdges"/><rect fill="#1e1e1e" x="0" y="367.5" width="12.2" height="24.65" shape-rendering="crispEdges"/><rect fill="#1e1e1e" x="12.2" y="367.5" width="12.2" height="24.65" shape-rendering="crispEdges"/><rect fill="#1e1e1e" x="24.4" y="367.5" width="24.4" height="24.65" shape-rendering="crispEdges"/><rect fill="#1e1e1e" x="48.8" y="367.5" width="158.6" height="24.65" shape-rendering="crispEdges"/><rect fill="#1e1e1e" x="207.4" y="367.5" width="12.2" height="24.65" shape-rendering="crispEdges"/><rect fill="#1e1e1e" x="219.6" y="367.5" width="244" height="24.65" shape-rendering="crispEdges"/><rect fill="#1e1e1e" x="463.6" y="367.5" width="12.2" height="24.65" shape-rendering="crispEdges"/><rect fill="#1e1e1e" x="475.8" y="367.5" width="585.6" height="24.65" shape-rendering="crispEdges"/><rect fill="#1e1e1e" x="1061.4" y="367.5" width="12.2" height="24.65" shape-rendering="crispEdges"/><rect fill="#1e1e1e" x="1073.6" y="367.5" width="48.8" height="24.65" shape-rendering="crispEdges"/><rect fill="#1e1e1e" x="1122.4" y="367.5" width="24.4" height="24.65" shape-rendering="crispEdges"/><rect fill="#1e1e1e" x="1146.8" y="367.5" width="24.4" height="24.65" shape-rendering="crispEdges"/><rect fill="#1e1e1e" x="1171.2" y="367.5" width="12.2" height="24.65" shape-rendering="crispEdges"/><rect fill="#1e1e1e" x="1183.4" y="367.5" width="12.2" height="24.65" shape-rendering="crispEdges"/><rect fill="#003054" x="1195.6" y="367.5" width="24.4" height="24.65" shape-rendering="crispEdges"/><rect fill="#1e1e1e" x="0" y="391.9" width="12.2" height="24.65" shape-rendering="crispEdges"/><rect fill="#1e1e1e" x="12.2" y="391.9" width="12.2" height="24.65" shape-rendering="crispEdges"/><rect fill="#1e1e1e" x="24.4" y="391.9" width="24.4" height="24.65" shape-rendering="crispEdges"/><rect fill="#1e1e1e" x="48.8" y="391.9" width="793" height="24.65" shape-rendering="crispEdges"/><rect fill="#1e1e1e" x="841.8" y="391.9" width="12.2" height="24.65" shape-rendering="crispEdges"/><rect fill="#1e1e1e" x="854" y="391.9" width="292.8" height="24.65" shape-rendering="crispEdges"/><rect fill="#1e1e1e" x="1146.8" y="391.9" width="24.4" height="24.65" shape-rendering="crispEdges"/><rect fill="#1e1e1e" x="1171.2" y="391.9" width="12.2" height="24.65" shape-rendering="crispEdges"/><rect fill="#1e1e1e" x="1183.4" y="391.9" width="12.2" height="24.65" shape-rendering="crispEdges"/><rect fill="#003054" x="1195.6" y="391.9" width="24.4" height="24.65" shape-rendering="crispEdges"/><rect fill="#1e1e1e" x="0" y="416.3" width="12.2" height="24.65" shape-rendering="crispEdges"/><rect fill="#1e1e1e" x="12.2" y="416.3" width="12.2" height="24.65" shape-rendering="crispEdges"/><rect fill="#1e1e1e" x="24.4" y="416.3" width="24.4" height="24.65" shape-rendering="crispEdges"/><rect fill="#1e1e1e" x="48.8" y="416.3" width="524.6" height="24.65" shape-rendering="crispEdges"/><rect fill="#1e1e1e" x="573.4" y="416.3" width="573.4" height="24.65" shape-rendering="crispEdges"/><rect fill="#1e1e1e" x="1146.8" y="416.3" width="24.4" height="24.65" shape-rendering="crispEdges"/><rect fill="#1e1e1e" x="1171.2" y="416.3" width="12.2" height="24.65" shape-rendering="crispEdges"/><rect fill="#1e1e1e" x="1183.4" y="416.3" width="12.2" height="24.65" shape-rendering="crispEdges"/><rect fill="#003054" x="1195.6" y="416.3" width="24.4" height="24.65" shape-rendering="crispEdges"/><rect fill="#1e1e1e" x="0" y="440.7" width="12.2" height="24.65" shape-rendering="crispEdges"/><rect fill="#1e1e1e" x="12.2" y="440.7" width="1171.2" height="24.65" shape-rendering="crispEdges"/><rect fill="#1e1e1e" x="1183.4" y="440.7" width="12.2" height="24.65" shape-rendering="crispEdges"/><rect fill="#003054" x="1195.6" y="440.7" width="24.4" height="24.65" shape-rendering="crispEdges"/><rect fill="#1e1e1e" x="0" y="465.1" width="12.2" height="24.65" shape-rendering="crispEdges"/><rect fill="#1e1e1e" x="12.2" y="465.1" width="1171.2" height="24.65" shape-rendering="crispEdges"/><rect fill="#1e1e1e" x="1183.4" y="465.1" width="12.2" height="24.65" shape-rendering="crispEdges"/><rect fill="#003054" x="1195.6" y="465.1" width="24.4" height="24.65" shape-rendering="crispEdges"/><rect fill="#1e1e1e" x="0" y="489.5" width="12.2" height="24.65" shape-rendering="crispEdges"/><rect fill="#1e1e1e" x="12.2" y="489.5" width="1171.2" height="24.65" shape-rendering="crispEdges"/><rect fill="#1e1e1e" x="1183.4" y="489.5" width="12.2" height="24.65" shape-rendering="crispEdges"/><rect fill="#003054" x="1195.6" y="489.5" width="24.4" height="24.65" shape-rendering="crispEdges"/><rect fill="#1e1e1e" x="0" y="513.9" width="12.2" height="24.65" shape-rendering="crispEdges"/><rect fill="#1e1e1e" x="12.2" y="513.9" width="1171.2" height="24.65" shape-rendering="crispEdges"/><rect fill="#1e1e1e" x="1183.4" y="513.9" width="12.2" height="24.65" shape-rendering="crispEdges"/><rect fill="#003054" x="1195.6" y="513.9" width="24.4" height="24.65" shape-rendering="crispEdges"/><rect fill="#1e1e1e" x="0" y="538.3" width="12.2" height="24.65" shape-rendering="crispEdges"/><rect fill="#1e1e1e" x="12.2" y="538.3" width="1171.2" height="24.65" shape-rendering="crispEdges"/><rect fill="#1e1e1e" x="1183.4" y="538.3" width="12.2" height="24.65" shape-rendering="crispEdges"/><rect fill="#003054" x="1195.6" y="538.3" width="24.4" height="24.65" shape-rendering="crispEdges"/><rect fill="#1e1e1e" x="0" y="562.7" width="12.2" height="24.65" shape-rendering="crispEdges"/><rect fill="#1e1e1e" x="12.2" y="562.7" width="1171.2" height="24.65" shape-rendering="crispEdges"/><rect fill="#1e1e1e" x="1183.4" y="562.7" width="12.2" height="24.65" shape-rendering="crispEdges"/><rect fill="#003054" x="1195.6" y="562.7" width="24.4" height="24.65" shape-rendering="crispEdges"/><rect fill="#1e1e1e" x="0" y="587.1" width="12.2" height="24.65" shape-rendering="crispEdges"/><rect fill="#1e1e1e" x="12.2" y="587.1" width="1171.2" height="24.65" shape-rendering="crispEdges"/><rect fill="#1e1e1e" x="1183.4" y="587.1" width="12.2" height="24.65" shape-rendering="crispEdges"/><rect fill="#003054" x="1195.6" y="587.1" width="24.4" height="24.65" shape-rendering="crispEdges"/><rect fill="#1e1e1e" x="0" y="611.5" width="12.2" height="24.65" shape-rendering="crispEdges"/><rect fill="#1e1e1e" x="12.2" y="611.5" width="1171.2" height="24.65" shape-rendering="crispEdges"/><rect fill="#1e1e1e" x="1183.4" y="611.5" width="12.2" height="24.65" shape-rendering="crispEdges"/><rect fill="#003054" x="1195.6" y="611.5" width="24.4" height="24.65" shape-rendering="crispEdges"/><rect fill="#1e1e1e" x="0" y="635.9" width="12.2" height="24.65" shape-rendering="crispEdges"/><rect fill="#1e1e1e" x="12.2" y="635.9" width="1171.2" height="24.65" shape-rendering="crispEdges"/><rect fill="#1e1e1e" x="1183.4" y="635.9" width="12.2" height="24.65" shape-rendering="crispEdges"/><rect fill="#003054" x="1195.6" y="635.9" width="24.4" height="24.65" shape-rendering="crispEdges"/><rect fill="#1e1e1e" x="0" y="660.3" width="12.2" height="24.65" shape-rendering="crispEdges"/><rect fill="#1e1e1e" x="12.2" y="660.3" width="1171.2" height="24.65" shape-rendering="crispEdges"/><rect fill="#1e1e1e" x="1183.4" y="660.3" width="12.2" height="24.65" shape-rendering="crispEdges"/><rect fill="#003054" x="1195.6" y="660.3" width="24.4" height="24.65" shape-rendering="crispEdges"/><rect fill="#1e1e1e" x="0" y="684.7" width="12.2" height="24.65" shape-rendering="crispEdges"/><rect fill="#1e1e1e" x="12.2" y="684.7" width="1171.2" height="24.65" shape-rendering="crispEdges"/><rect fill="#1e1e1e" x="1183.4" y="684.7" width="12.2" height="24.65" shape-rendering="crispEdges"/><rect fill="#000000" x="1195.6" y="684.7" width="24.4" height="24.65" shape-rendering="crispEdges"/><rect fill="#1e1e1e" x="0" y="709.1" width="1195.6" height="24.65" shape-rendering="crispEdges"/><rect fill="#000000" x="1195.6" y="709.1" width="24.4" height="24.65" shape-rendering="crispEdges"/>
    <g class="terminal-2316321423-matrix">
    <text class="terminal-2316321423-r1" x="0" y="20" textLength="195.2" clip-path="url(#terminal-2316321423-line-0)">▔▔▔▔▔▔▔▔▔▔▔▔▔▔▔▔</text><text class="terminal-2316321423-r2" x="1220" y="20" textLength="12.2" clip-path="url(#terminal-2316321423-line-0)">
</text><text class="terminal-2316321423-r4" x="0" y="44.4" textLength="183.0" clip-path="url(#terminal-2316321423-line-1)">&#160;from&#160;instance&#160;</text><text class="terminal-2316321423-r2" x="1220" y="44.4" textLength="12.2" clip-path="url(#terminal-2316321423-line-1)">
</text><text class="terminal-2316321423-r5" x="0" y="68.8" textLength="195.2" clip-path="url(#terminal-2316321423-line-2)">▁▁▁▁▁▁▁▁▁▁▁▁▁▁▁▁</text><text class="terminal-2316321423-r2" x="1220" y="68.8" textLength="12.2" clip-path="url(#terminal-2316321423-line-2)">
</text><text class="terminal-2316321423-r2" x="1220" y="93.2" textLength="12.2" clip-path="url(#terminal-2316321423-line-3)">
</text><text class="terminal-2316321423-r6" x="24.4" y="117.6" textLength="1146.8" clip-path="url(#terminal-2316321423-line-4)">┏━━━━━━━━━━━━━━━━━━━━━━━━━━━━━━━━━━━━━━━━━━━━━━━━━━━━━━━━━━━━━━━━━━━━━━━━━━━━━━━━━━━━━━━━━━━━┓</text><text class="terminal-2316321423-r2" x="1220" y="117.6" textLength="12.2" clip-path="url(#terminal-2316321423-line-4)">
</text><text class="terminal-2316321423-r6" x="24.4" y="142" textLength="12.2" clip-path="url(#terminal-2316321423-line-5)">┃</text><text class="terminal-2316321423-r4" x="549" y="142" textLength="97.6" clip-path="url(#terminal-2316321423-line-5)">Welcome!</text><text class="terminal-2316321423-r6" x="1159" y="142" textLength="12.2" clip-path="url(#terminal-2316321423-line-5)">┃</text><text class="terminal-2316321423-r2" x="1220" y="142" textLength="12.2" clip-path="url(#terminal-2316321423-line-5)">
</text><text class="terminal-2316321423-r6" x="24.4" y="166.4" textLength="1146.8" clip-path="url(#terminal-2316321423-line-6)">┗━━━━━━━━━━━━━━━━━━━━━━━━━━━━━━━━━━━━━━━━━━━━━━━━━━━━━━━━━━━━━━━━━━━━━━━━━━━━━━━━━━━━━━━━━━━━┛</text><text class="terminal-2316321423-r2" x="1220" y="166.4" textLength="12.2" clip-path="url(#terminal-2316321423-line-6)">
</text><text class="terminal-2316321423-r2" x="1220" y="190.8" textLength="12.2" clip-path="url(#terminal-2316321423-line-7)">
</text><text class="terminal-2316321423-r6" x="24.4" y="215.2" textLength="256.2" clip-path="url(#terminal-2316321423-line-8)">Textual&#160;is&#160;a&#160;TUI,&#160;or&#160;</text><text class="terminal-2316321423-r7" x="280.6" y="215.2" textLength="231.8" clip-path="url(#terminal-2316321423-line-8)">Text&#160;User&#160;Interface</text><text class="terminal-2316321423-r6" x="512.4" y="215.2" textLength="658.8" clip-path="url(#terminal-2316321423-line-8)">,&#160;framework&#160;for&#160;Python&#160;inspired&#160;by&#160;modern&#160;web&#160;&#160;&#160;&#160;&#160;&#160;&#160;&#160;&#160;</text><text class="terminal-2316321423-r2" x="1220" y="215.2" textLength="12.2" clip-path="url(#terminal-2316321423-line-8)">
</text><text class="terminal-2316321423-r6" x="24.4" y="239.6" textLength="158.6" clip-path="url(#terminal-2316321423-line-9)">development.&#160;</text><text class="terminal-2316321423-r4" x="183" y="239.6" textLength="390.4" clip-path="url(#terminal-2316321423-line-9)">We&#160;hope&#160;you&#160;enjoy&#160;using&#160;Textual!</text><text class="terminal-2316321423-r2" x="1220" y="239.6" textLength="12.2" clip-path="url(#terminal-2316321423-line-9)">
</text><text class="terminal-2316321423-r2" x="1220" y="264" textLength="12.2" clip-path="url(#terminal-2316321423-line-10)">
</text><text class="terminal-2316321423-r2" x="1220" y="288.4" textLength="12.2" clip-path="url(#terminal-2316321423-line-11)">
</text><text class="terminal-2316321423-r8" x="536.8" y="312.8" textLength="122.0" clip-path="url(#terminal-2316321423-line-12)">Dune&#160;quote</text><text class="terminal-2316321423-r2" x="1220" y="312.8" textLength="12.2" clip-path="url(#terminal-2316321423-line-12)">
</text><text class="terminal-2316321423-r2" x="1220" y="337.2" textLength="12.2" clip-path="url(#terminal-2316321423-line-13)">
</text><text class="terminal-2316321423-r9" x="24.4" y="361.6" textLength="24.4" clip-path="url(#terminal-2316321423-line-14)">▌&#160;</text><text class="terminal-2316321423-r9" x="48.8" y="361.6" textLength="207.4" clip-path="url(#terminal-2316321423-line-14)">&quot;I&#160;must&#160;not&#160;fear.</text><text class="terminal-2316321423-r9" x="268.4" y="361.6" textLength="292.8" clip-path="url(#terminal-2316321423-line-14)">Fear&#160;is&#160;the&#160;mind-killer.</text><text class="terminal-2316321423-r9" x="573.4" y="361.6" textLength="524.6" clip-path="url(#terminal-2316321423-line-14)">Fear&#160;is&#160;the&#160;little-death&#160;that&#160;brings&#160;total&#160;</text><text class="terminal-2316321423-r2" x="1220" y="361.6" textLength="12.2" clip-path="url(#terminal-2316321423-line-14)">
</text><text class="terminal-2316321423-r9" x="24.4" y="386" textLength="24.4" clip-path="url(#terminal-2316321423-line-15)">▌&#160;</text><text class="terminal-2316321423-r9" x="48.8" y="386" textLength="158.6" clip-path="url(#terminal-2316321423-line-15)">obliteration.</text><text class="terminal-2316321423-r9" x="219.6" y="386" textLength="244.0" clip-path="url(#terminal-2316321423-line-15)">I&#160;will&#160;face&#160;my&#160;fear.</text><text class="terminal-2316321423-r9" x="475.8" y="386" textLength="585.6" clip-path="url(#terminal-2316321423-line-15)">I&#160;will&#160;permit&#160;it&#160;to&#160;pass&#160;over&#160;me&#160;and&#160;through&#160;me.</text><text class="terminal-2316321423-r9" x="1073.6" y="386" textLength="48.8" clip-path="url(#terminal-2316321423-line-15)">And&#160;</text><text class="terminal-2316321423-r2" x="1220" y="386" textLength="12.2" clip-path="url(#terminal-2316321423-line-15)">
</text><text class="terminal-2316321423-r9" x="24.4" y="410.4" textLength="24.4" clip-path="url(#terminal-2316321423-line-16)">▌&#160;</text><text class="terminal-2316321423-r9" x="48.8" y="410.4" textLength="793.0" clip-path="url(#terminal-2316321423-line-16)">when&#160;it&#160;has&#160;gone&#160;past,&#160;I&#160;will&#160;turn&#160;the&#160;inner&#160;eye&#160;to&#160;see&#160;its&#160;path.</text><text class="terminal-2316321423-r9" x="854" y="410.4" textLength="292.8" clip-path="url(#terminal-2316321423-line-16)">Where&#160;the&#160;fear&#160;has&#160;gone&#160;</text><text class="terminal-2316321423-r2" x="1220" y="410.4" textLength="12.2" clip-path="url(#terminal-2316321423-line-16)">
</text><text class="terminal-2316321423-r9" x="24.4" y="434.8" textLength="24.4" clip-path="url(#terminal-2316321423-line-17)">▌&#160;</text><text class="terminal-2316321423-r9" x="48.8" y="434.8" textLength="524.6" clip-path="url(#terminal-2316321423-line-17)">there&#160;will&#160;be&#160;nothing.&#160;Only&#160;I&#160;will&#160;remain.&quot;</text><text class="terminal-2316321423-r2" x="1220" y="434.8" textLength="12.2" clip-path="url(#terminal-2316321423-line-17)">
</text><text class="terminal-2316321423-r2" x="1220" y="459.2" textLength="12.2" clip-path="url(#terminal-2316321423-line-18)">
</text><text class="terminal-2316321423-r2" x="1220" y="483.6" textLength="12.2" clip-path="url(#terminal-2316321423-line-19)">
</text><text class="terminal-2316321423-r2" x="1220" y="508" textLength="12.2" clip-path="url(#terminal-2316321423-line-20)">
</text><text class="terminal-2316321423-r2" x="1220" y="532.4" textLength="12.2" clip-path="url(#terminal-2316321423-line-21)">
</text><text class="terminal-2316321423-r2" x="1220" y="556.8" textLength="12.2" clip-path="url(#terminal-2316321423-line-22)">
</text><text class="terminal-2316321423-r2" x="1220" y="581.2" textLength="12.2" clip-path="url(#terminal-2316321423-line-23)">
</text><text class="terminal-2316321423-r2" x="1220" y="605.6" textLength="12.2" clip-path="url(#terminal-2316321423-line-24)">
</text><text class="terminal-2316321423-r2" x="1220" y="630" textLength="12.2" clip-path="url(#terminal-2316321423-line-25)">
</text><text class="terminal-2316321423-r2" x="1220" y="654.4" textLength="12.2" clip-path="url(#terminal-2316321423-line-26)">
</text><text class="terminal-2316321423-r10" x="1195.6" y="678.8" textLength="24.4" clip-path="url(#terminal-2316321423-line-27)">▅▅</text><text class="terminal-2316321423-r2" x="1220" y="678.8" textLength="12.2" clip-path="url(#terminal-2316321423-line-27)">
</text><text class="terminal-2316321423-r2" x="1220" y="703.2" textLength="12.2" clip-path="url(#terminal-2316321423-line-28)">
</text>
    </g>
    </g>
</svg>
