<svg xmlns="http://www.w3.org/2000/svg"
    style="background-color: transparent;"
     viewBox="0 0 470 470"
>
	<defs>
		<style><![CDATA[
		.line {
			stroke: #16b8f3;
			stroke: #000000;
			stroke: #ffffff;
			stroke: #008c8c;
			fill-opacity: 0.8;
			stroke-opacity: 1;
			stroke-width: 15;
		}
		.line-polygon {
			stroke: rgba(0,0,0,0.651);
			stroke: #ffffff;
			fill: #ffffff;
			fill: #008c8c;
			fill-opacity: 0.3;
			stroke-opacity: 0.7;
			stroke-width: 5;
		}
		]]></style>
	</defs>
	<!--
	<g transform="translate(330, 10) scale(-1, 1)">
	-->
	<g transform="translate(20, 195) scale(1, 1) rotate(-40)">
		<polygon points="100,0 300,0 300,200 200,300 0,300 0,100" class="line-polygon"/>
		<!-- 1-3 -->
		<line x1="100" y1="0" x2="300" y2="0" class="line"/>
		<line x1="100" y1="0" x2="0" y2="100" class="line"/>
		<line x1="100" y1="0" x2="100" y2="200" class="line"/>
		<!-- 4-5 -->
		<line x1="100" y1="200" x2="300" y2="0" class="line"/>
		<line x1="300" y1="0" x2="300" y2="200" class="line"/>
		<line x1="0" y1="100" x2="0" y2="300" class="line"/>
		<!-- 7-9 -->
		<line x1="0" y1="100" x2="100" y2="100" class="line"/>
		<line x1="0" y1="200" x2="300" y2="200" class="line"/>
		<line x1="0" y1="200" x2="300" y2="200" class="line"/>
		<!-- 10-12 -->
		<line x1="0" y1="200" x2="100" y2="300" class="line"/>
		<line x1="100" y1="200" x2="200" y2="300" class="line"/>
		<line x1="300" y1="200" x2="200" y2="300" class="line"/>

		<line x1="0" y1="300" x2="200" y2="300" class="line"/>
		<line x1="0" y1="300" x2="-50" y2="340" class="line"/>
	</g>
</svg>
