<svg class="rich-terminal" viewBox="0 0 1238 782.0" xmlns="http://www.w3.org/2000/svg">
    <!-- Generated with Rich https://www.textualize.io -->
    <style>

    @font-face {
        font-family: "Fira Code";
        src: local("FiraCode-Regular"),
                url("https://cdnjs.cloudflare.com/ajax/libs/firacode/6.2.0/woff2/FiraCode-Regular.woff2") format("woff2"),
                url("https://cdnjs.cloudflare.com/ajax/libs/firacode/6.2.0/woff/FiraCode-Regular.woff") format("woff");
        font-style: normal;
        font-weight: 400;
    }
    @font-face {
        font-family: "Fira Code";
        src: local("FiraCode-Bold"),
                url("https://cdnjs.cloudflare.com/ajax/libs/firacode/6.2.0/woff2/FiraCode-Bold.woff2") format("woff2"),
                url("https://cdnjs.cloudflare.com/ajax/libs/firacode/6.2.0/woff/FiraCode-Bold.woff") format("woff");
        font-style: bold;
        font-weight: 700;
    }

    .terminal-601973755-matrix {
        font-family: "Noto Sans Mono CJK SC", "WenQuanYi Micro Hei Mono", "Fira Code", monospace;
        font-size: 20px;
        line-height: 24.4px;
        font-variant-east-asian: full-width;
    }

    .terminal-601973755-title {
        font-size: 18px;
        font-weight: bold;
        font-family: arial;
    }

    .terminal-601973755-r1 { fill: #121212 }
.terminal-601973755-r2 { fill: #191919 }
.terminal-601973755-r3 { fill: #c5c8c6 }
.terminal-601973755-r4 { fill: #c2c2bf }
.terminal-601973755-r5 { fill: #f8f8f2 }
.terminal-601973755-r6 { fill: #90908a }
.terminal-601973755-r7 { fill: #2d2d2d }
.terminal-601973755-r8 { fill: #e0e0e0;font-weight: bold }
.terminal-601973755-r9 { fill: #0d0d0d }
    </style>

    <defs>
    <clipPath id="terminal-601973755-clip-terminal">
      <rect x="0" y="0" width="1219.0" height="731.0" />
    </clipPath>
    <clipPath id="terminal-601973755-line-0">
    <rect x="0" y="1.5" width="1220" height="24.65"/>
            </clipPath>
<clipPath id="terminal-601973755-line-1">
    <rect x="0" y="25.9" width="1220" height="24.65"/>
            </clipPath>
<clipPath id="terminal-601973755-line-2">
    <rect x="0" y="50.3" width="1220" height="24.65"/>
            </clipPath>
<clipPath id="terminal-601973755-line-3">
    <rect x="0" y="74.7" width="1220" height="24.65"/>
            </clipPath>
<clipPath id="terminal-601973755-line-4">
    <rect x="0" y="99.1" width="1220" height="24.65"/>
            </clipPath>
<clipPath id="terminal-601973755-line-5">
    <rect x="0" y="123.5" width="1220" height="24.65"/>
            </clipPath>
<clipPath id="terminal-601973755-line-6">
    <rect x="0" y="147.9" width="1220" height="24.65"/>
            </clipPath>
<clipPath id="terminal-601973755-line-7">
    <rect x="0" y="172.3" width="1220" height="24.65"/>
            </clipPath>
<clipPath id="terminal-601973755-line-8">
    <rect x="0" y="196.7" width="1220" height="24.65"/>
            </clipPath>
<clipPath id="terminal-601973755-line-9">
    <rect x="0" y="221.1" width="1220" height="24.65"/>
            </clipPath>
<clipPath id="terminal-601973755-line-10">
    <rect x="0" y="245.5" width="1220" height="24.65"/>
            </clipPath>
<clipPath id="terminal-601973755-line-11">
    <rect x="0" y="269.9" width="1220" height="24.65"/>
            </clipPath>
<clipPath id="terminal-601973755-line-12">
    <rect x="0" y="294.3" width="1220" height="24.65"/>
            </clipPath>
<clipPath id="terminal-601973755-line-13">
    <rect x="0" y="318.7" width="1220" height="24.65"/>
            </clipPath>
<clipPath id="terminal-601973755-line-14">
    <rect x="0" y="343.1" width="1220" height="24.65"/>
            </clipPath>
<clipPath id="terminal-601973755-line-15">
    <rect x="0" y="367.5" width="1220" height="24.65"/>
            </clipPath>
<clipPath id="terminal-601973755-line-16">
    <rect x="0" y="391.9" width="1220" height="24.65"/>
            </clipPath>
<clipPath id="terminal-601973755-line-17">
    <rect x="0" y="416.3" width="1220" height="24.65"/>
            </clipPath>
<clipPath id="terminal-601973755-line-18">
    <rect x="0" y="440.7" width="1220" height="24.65"/>
            </clipPath>
<clipPath id="terminal-601973755-line-19">
    <rect x="0" y="465.1" width="1220" height="24.65"/>
            </clipPath>
<clipPath id="terminal-601973755-line-20">
    <rect x="0" y="489.5" width="1220" height="24.65"/>
            </clipPath>
<clipPath id="terminal-601973755-line-21">
    <rect x="0" y="513.9" width="1220" height="24.65"/>
            </clipPath>
<clipPath id="terminal-601973755-line-22">
    <rect x="0" y="538.3" width="1220" height="24.65"/>
            </clipPath>
<clipPath id="terminal-601973755-line-23">
    <rect x="0" y="562.7" width="1220" height="24.65"/>
            </clipPath>
<clipPath id="terminal-601973755-line-24">
    <rect x="0" y="587.1" width="1220" height="24.65"/>
            </clipPath>
<clipPath id="terminal-601973755-line-25">
    <rect x="0" y="611.5" width="1220" height="24.65"/>
            </clipPath>
<clipPath id="terminal-601973755-line-26">
    <rect x="0" y="635.9" width="1220" height="24.65"/>
            </clipPath>
<clipPath id="terminal-601973755-line-27">
    <rect x="0" y="660.3" width="1220" height="24.65"/>
            </clipPath>
<clipPath id="terminal-601973755-line-28">
    <rect x="0" y="684.7" width="1220" height="24.65"/>
            </clipPath>
    </defs>

    <rect fill="#292929" stroke="rgba(255,255,255,0.35)" stroke-width="1" x="1" y="1" width="1236" height="780" rx="8"/><text class="terminal-601973755-title" fill="#c5c8c6" text-anchor="middle" x="618" y="27">textarea_ref_access</text>
            <g transform="translate(26,22)">
            <circle cx="0" cy="0" r="7" fill="#ff5f57"/>
            <circle cx="22" cy="0" r="7" fill="#febc2e"/>
            <circle cx="44" cy="0" r="7" fill="#28c840"/>
            </g>
        
    <g transform="translate(9, 41)" clip-path="url(#terminal-601973755-clip-terminal)">
    <rect fill="#191919" x="0" y="1.5" width="12.2" height="24.65" shape-rendering="crispEdges"/><rect fill="#272822" x="12.2" y="1.5" width="1195.6" height="24.65" shape-rendering="crispEdges"/><rect fill="#121212" x="1207.8" y="1.5" width="12.2" height="24.65" shape-rendering="crispEdges"/><rect fill="#191919" x="0" y="25.9" width="12.2" height="24.65" shape-rendering="crispEdges"/><rect fill="#272822" x="12.2" y="25.9" width="12.2" height="24.65" shape-rendering="crispEdges"/><rect fill="#3e3d32" x="24.4" y="25.9" width="36.6" height="24.65" shape-rendering="crispEdges"/><rect fill="#3e3d32" x="61" y="25.9" width="183" height="24.65" shape-rendering="crispEdges"/><rect fill="#3e3d32" x="244" y="25.9" width="951.6" height="24.65" shape-rendering="crispEdges"/><rect fill="#272822" x="1195.6" y="25.9" width="12.2" height="24.65" shape-rendering="crispEdges"/><rect fill="#121212" x="1207.8" y="25.9" width="12.2" height="24.65" shape-rendering="crispEdges"/><rect fill="#191919" x="0" y="50.3" width="12.2" height="24.65" shape-rendering="crispEdges"/><rect fill="#272822" x="12.2" y="50.3" width="12.2" height="24.65" shape-rendering="crispEdges"/><rect fill="#272822" x="24.4" y="50.3" width="36.6" height="24.65" shape-rendering="crispEdges"/><rect fill="#272822" x="61" y="50.3" width="12.2" height="24.65" shape-rendering="crispEdges"/><rect fill="#272822" x="73.2" y="50.3" width="1122.4" height="24.65" shape-rendering="crispEdges"/><rect fill="#272822" x="1195.6" y="50.3" width="12.2" height="24.65" shape-rendering="crispEdges"/><rect fill="#121212" x="1207.8" y="50.3" width="12.2" height="24.65" shape-rendering="crispEdges"/><rect fill="#191919" x="0" y="74.7" width="12.2" height="24.65" shape-rendering="crispEdges"/><rect fill="#272822" x="12.2" y="74.7" width="12.2" height="24.65" shape-rendering="crispEdges"/><rect fill="#272822" x="24.4" y="74.7" width="1171.2" height="24.65" shape-rendering="crispEdges"/><rect fill="#272822" x="1195.6" y="74.7" width="12.2" height="24.65" shape-rendering="crispEdges"/><rect fill="#121212" x="1207.8" y="74.7" width="12.2" height="24.65" shape-rendering="crispEdges"/><rect fill="#191919" x="0" y="99.1" width="12.2" height="24.65" shape-rendering="crispEdges"/><rect fill="#272822" x="12.2" y="99.1" width="12.2" height="24.65" shape-rendering="crispEdges"/><rect fill="#272822" x="24.4" y="99.1" width="1171.2" height="24.65" shape-rendering="crispEdges"/><rect fill="#272822" x="1195.6" y="99.1" width="12.2" height="24.65" shape-rendering="crispEdges"/><rect fill="#121212" x="1207.8" y="99.1" width="12.2" height="24.65" shape-rendering="crispEdges"/><rect fill="#191919" x="0" y="123.5" width="12.2" height="24.65" shape-rendering="crispEdges"/><rect fill="#272822" x="12.2" y="123.5" width="12.2" height="24.65" shape-rendering="crispEdges"/><rect fill="#272822" x="24.4" y="123.5" width="1171.2" height="24.65" shape-rendering="crispEdges"/><rect fill="#272822" x="1195.6" y="123.5" width="12.2" height="24.65" shape-rendering="crispEdges"/><rect fill="#121212" x="1207.8" y="123.5" width="12.2" height="24.65" shape-rendering="crispEdges"/><rect fill="#191919" x="0" y="147.9" width="12.2" height="24.65" shape-rendering="crispEdges"/><rect fill="#272822" x="12.2" y="147.9" width="12.2" height="24.65" shape-rendering="crispEdges"/><rect fill="#272822" x="24.4" y="147.9" width="1171.2" height="24.65" shape-rendering="crispEdges"/><rect fill="#272822" x="1195.6" y="147.9" width="12.2" height="24.65" shape-rendering="crispEdges"/><rect fill="#121212" x="1207.8" y="147.9" width="12.2" height="24.65" shape-rendering="crispEdges"/><rect fill="#191919" x="0" y="172.3" width="12.2" height="24.65" shape-rendering="crispEdges"/><rect fill="#272822" x="12.2" y="172.3" width="12.2" height="24.65" shape-rendering="crispEdges"/><rect fill="#272822" x="24.4" y="172.3" width="1171.2" height="24.65" shape-rendering="crispEdges"/><rect fill="#272822" x="1195.6" y="172.3" width="12.2" height="24.65" shape-rendering="crispEdges"/><rect fill="#121212" x="1207.8" y="172.3" width="12.2" height="24.65" shape-rendering="crispEdges"/><rect fill="#191919" x="0" y="196.7" width="12.2" height="24.65" shape-rendering="crispEdges"/><rect fill="#272822" x="12.2" y="196.7" width="12.2" height="24.65" shape-rendering="crispEdges"/><rect fill="#272822" x="24.4" y="196.7" width="1171.2" height="24.65" shape-rendering="crispEdges"/><rect fill="#272822" x="1195.6" y="196.7" width="12.2" height="24.65" shape-rendering="crispEdges"/><rect fill="#121212" x="1207.8" y="196.7" width="12.2" height="24.65" shape-rendering="crispEdges"/><rect fill="#191919" x="0" y="221.1" width="12.2" height="24.65" shape-rendering="crispEdges"/><rect fill="#272822" x="12.2" y="221.1" width="12.2" height="24.65" shape-rendering="crispEdges"/><rect fill="#272822" x="24.4" y="221.1" width="1171.2" height="24.65" shape-rendering="crispEdges"/><rect fill="#272822" x="1195.6" y="221.1" width="12.2" height="24.65" shape-rendering="crispEdges"/><rect fill="#121212" x="1207.8" y="221.1" width="12.2" height="24.65" shape-rendering="crispEdges"/><rect fill="#191919" x="0" y="245.5" width="12.2" height="24.65" shape-rendering="crispEdges"/><rect fill="#272822" x="12.2" y="245.5" width="12.2" height="24.65" shape-rendering="crispEdges"/><rect fill="#272822" x="24.4" y="245.5" width="1171.2" height="24.65" shape-rendering="crispEdges"/><rect fill="#272822" x="1195.6" y="245.5" width="12.2" height="24.65" shape-rendering="crispEdges"/><rect fill="#121212" x="1207.8" y="245.5" width="12.2" height="24.65" shape-rendering="crispEdges"/><rect fill="#191919" x="0" y="269.9" width="12.2" height="24.65" shape-rendering="crispEdges"/><rect fill="#272822" x="12.2" y="269.9" width="12.2" height="24.65" shape-rendering="crispEdges"/><rect fill="#272822" x="24.4" y="269.9" width="1171.2" height="24.65" shape-rendering="crispEdges"/><rect fill="#272822" x="1195.6" y="269.9" width="12.2" height="24.65" shape-rendering="crispEdges"/><rect fill="#121212" x="1207.8" y="269.9" width="12.2" height="24.65" shape-rendering="crispEdges"/><rect fill="#191919" x="0" y="294.3" width="12.2" height="24.65" shape-rendering="crispEdges"/><rect fill="#272822" x="12.2" y="294.3" width="12.2" height="24.65" shape-rendering="crispEdges"/><rect fill="#272822" x="24.4" y="294.3" width="1171.2" height="24.65" shape-rendering="crispEdges"/><rect fill="#272822" x="1195.6" y="294.3" width="12.2" height="24.65" shape-rendering="crispEdges"/><rect fill="#121212" x="1207.8" y="294.3" width="12.2" height="24.65" shape-rendering="crispEdges"/><rect fill="#191919" x="0" y="318.7" width="12.2" height="24.65" shape-rendering="crispEdges"/><rect fill="#272822" x="12.2" y="318.7" width="12.2" height="24.65" shape-rendering="crispEdges"/><rect fill="#272822" x="24.4" y="318.7" width="1171.2" height="24.65" shape-rendering="crispEdges"/><rect fill="#272822" x="1195.6" y="318.7" width="12.2" height="24.65" shape-rendering="crispEdges"/><rect fill="#121212" x="1207.8" y="318.7" width="12.2" height="24.65" shape-rendering="crispEdges"/><rect fill="#191919" x="0" y="343.1" width="12.2" height="24.65" shape-rendering="crispEdges"/><rect fill="#272822" x="12.2" y="343.1" width="12.2" height="24.65" shape-rendering="crispEdges"/><rect fill="#272822" x="24.4" y="343.1" width="1171.2" height="24.65" shape-rendering="crispEdges"/><rect fill="#272822" x="1195.6" y="343.1" width="12.2" height="24.65" shape-rendering="crispEdges"/><rect fill="#121212" x="1207.8" y="343.1" width="12.2" height="24.65" shape-rendering="crispEdges"/><rect fill="#191919" x="0" y="367.5" width="12.2" height="24.65" shape-rendering="crispEdges"/><rect fill="#272822" x="12.2" y="367.5" width="12.2" height="24.65" shape-rendering="crispEdges"/><rect fill="#272822" x="24.4" y="367.5" width="1171.2" height="24.65" shape-rendering="crispEdges"/><rect fill="#272822" x="1195.6" y="367.5" width="12.2" height="24.65" shape-rendering="crispEdges"/><rect fill="#121212" x="1207.8" y="367.5" width="12.2" height="24.65" shape-rendering="crispEdges"/><rect fill="#191919" x="0" y="391.9" width="12.2" height="24.65" shape-rendering="crispEdges"/><rect fill="#272822" x="12.2" y="391.9" width="12.2" height="24.65" shape-rendering="crispEdges"/><rect fill="#272822" x="24.4" y="391.9" width="1171.2" height="24.65" shape-rendering="crispEdges"/><rect fill="#272822" x="1195.6" y="391.9" width="12.2" height="24.65" shape-rendering="crispEdges"/><rect fill="#121212" x="1207.8" y="391.9" width="12.2" height="24.65" shape-rendering="crispEdges"/><rect fill="#191919" x="0" y="416.3" width="12.2" height="24.65" shape-rendering="crispEdges"/><rect fill="#272822" x="12.2" y="416.3" width="12.2" height="24.65" shape-rendering="crispEdges"/><rect fill="#272822" x="24.4" y="416.3" width="1171.2" height="24.65" shape-rendering="crispEdges"/><rect fill="#272822" x="1195.6" y="416.3" width="12.2" height="24.65" shape-rendering="crispEdges"/><rect fill="#121212" x="1207.8" y="416.3" width="12.2" height="24.65" shape-rendering="crispEdges"/><rect fill="#191919" x="0" y="440.7" width="12.2" height="24.65" shape-rendering="crispEdges"/><rect fill="#272822" x="12.2" y="440.7" width="12.2" height="24.65" shape-rendering="crispEdges"/><rect fill="#272822" x="24.4" y="440.7" width="1171.2" height="24.65" shape-rendering="crispEdges"/><rect fill="#272822" x="1195.6" y="440.7" width="12.2" height="24.65" shape-rendering="crispEdges"/><rect fill="#121212" x="1207.8" y="440.7" width="12.2" height="24.65" shape-rendering="crispEdges"/><rect fill="#191919" x="0" y="465.1" width="12.2" height="24.65" shape-rendering="crispEdges"/><rect fill="#272822" x="12.2" y="465.1" width="12.2" height="24.65" shape-rendering="crispEdges"/><rect fill="#272822" x="24.4" y="465.1" width="1171.2" height="24.65" shape-rendering="crispEdges"/><rect fill="#272822" x="1195.6" y="465.1" width="12.2" height="24.65" shape-rendering="crispEdges"/><rect fill="#121212" x="1207.8" y="465.1" width="12.2" height="24.65" shape-rendering="crispEdges"/><rect fill="#191919" x="0" y="489.5" width="12.2" height="24.65" shape-rendering="crispEdges"/><rect fill="#272822" x="12.2" y="489.5" width="12.2" height="24.65" shape-rendering="crispEdges"/><rect fill="#272822" x="24.4" y="489.5" width="1171.2" height="24.65" shape-rendering="crispEdges"/><rect fill="#272822" x="1195.6" y="489.5" width="12.2" height="24.65" shape-rendering="crispEdges"/><rect fill="#121212" x="1207.8" y="489.5" width="12.2" height="24.65" shape-rendering="crispEdges"/><rect fill="#191919" x="0" y="513.9" width="12.2" height="24.65" shape-rendering="crispEdges"/><rect fill="#272822" x="12.2" y="513.9" width="12.2" height="24.65" shape-rendering="crispEdges"/><rect fill="#272822" x="24.4" y="513.9" width="1171.2" height="24.65" shape-rendering="crispEdges"/><rect fill="#272822" x="1195.6" y="513.9" width="12.2" height="24.65" shape-rendering="crispEdges"/><rect fill="#121212" x="1207.8" y="513.9" width="12.2" height="24.65" shape-rendering="crispEdges"/><rect fill="#191919" x="0" y="538.3" width="12.2" height="24.65" shape-rendering="crispEdges"/><rect fill="#272822" x="12.2" y="538.3" width="12.2" height="24.65" shape-rendering="crispEdges"/><rect fill="#272822" x="24.4" y="538.3" width="1171.2" height="24.65" shape-rendering="crispEdges"/><rect fill="#272822" x="1195.6" y="538.3" width="12.2" height="24.65" shape-rendering="crispEdges"/><rect fill="#121212" x="1207.8" y="538.3" width="12.2" height="24.65" shape-rendering="crispEdges"/><rect fill="#191919" x="0" y="562.7" width="12.2" height="24.65" shape-rendering="crispEdges"/><rect fill="#272822" x="12.2" y="562.7" width="12.2" height="24.65" shape-rendering="crispEdges"/><rect fill="#272822" x="24.4" y="562.7" width="1171.2" height="24.65" shape-rendering="crispEdges"/><rect fill="#272822" x="1195.6" y="562.7" width="12.2" height="24.65" shape-rendering="crispEdges"/><rect fill="#121212" x="1207.8" y="562.7" width="12.2" height="24.65" shape-rendering="crispEdges"/><rect fill="#191919" x="0" y="587.1" width="12.2" height="24.65" shape-rendering="crispEdges"/><rect fill="#272822" x="12.2" y="587.1" width="12.2" height="24.65" shape-rendering="crispEdges"/><rect fill="#272822" x="24.4" y="587.1" width="1171.2" height="24.65" shape-rendering="crispEdges"/><rect fill="#272822" x="1195.6" y="587.1" width="12.2" height="24.65" shape-rendering="crispEdges"/><rect fill="#121212" x="1207.8" y="587.1" width="12.2" height="24.65" shape-rendering="crispEdges"/><rect fill="#191919" x="0" y="611.5" width="12.2" height="24.65" shape-rendering="crispEdges"/><rect fill="#272822" x="12.2" y="611.5" width="12.2" height="24.65" shape-rendering="crispEdges"/><rect fill="#272822" x="24.4" y="611.5" width="1171.2" height="24.65" shape-rendering="crispEdges"/><rect fill="#272822" x="1195.6" y="611.5" width="12.2" height="24.65" shape-rendering="crispEdges"/><rect fill="#121212" x="1207.8" y="611.5" width="12.2" height="24.65" shape-rendering="crispEdges"/><rect fill="#191919" x="0" y="635.9" width="12.2" height="24.65" shape-rendering="crispEdges"/><rect fill="#272822" x="12.2" y="635.9" width="1195.6" height="24.65" shape-rendering="crispEdges"/><rect fill="#121212" x="1207.8" y="635.9" width="12.2" height="24.65" shape-rendering="crispEdges"/><rect fill="#1e1e1e" x="0" y="660.3" width="195.2" height="24.65" shape-rendering="crispEdges"/><rect fill="#121212" x="195.2" y="660.3" width="1024.8" height="24.65" shape-rendering="crispEdges"/><rect fill="#1e1e1e" x="0" y="684.7" width="12.2" height="24.65" shape-rendering="crispEdges"/><rect fill="#1e1e1e" x="12.2" y="684.7" width="170.8" height="24.65" shape-rendering="crispEdges"/><rect fill="#1e1e1e" x="183" y="684.7" width="12.2" height="24.65" shape-rendering="crispEdges"/><rect fill="#121212" x="195.2" y="684.7" width="1024.8" height="24.65" shape-rendering="crispEdges"/><rect fill="#1e1e1e" x="0" y="709.1" width="195.2" height="24.65" shape-rendering="crispEdges"/><rect fill="#121212" x="195.2" y="709.1" width="1024.8" height="24.65" shape-rendering="crispEdges"/>
    <g class="terminal-601973755-matrix">
    <text class="terminal-601973755-r1" x="0" y="20" textLength="12.2" clip-path="url(#terminal-601973755-line-0)">▊</text><text class="terminal-601973755-r2" x="12.2" y="20" textLength="1195.6" clip-path="url(#terminal-601973755-line-0)">▔▔▔▔▔▔▔▔▔▔▔▔▔▔▔▔▔▔▔▔▔▔▔▔▔▔▔▔▔▔▔▔▔▔▔▔▔▔▔▔▔▔▔▔▔▔▔▔▔▔▔▔▔▔▔▔▔▔▔▔▔▔▔▔▔▔▔▔▔▔▔▔▔▔▔▔▔▔▔▔▔▔▔▔▔▔▔▔▔▔▔▔▔▔▔▔▔▔</text><text class="terminal-601973755-r2" x="1207.8" y="20" textLength="12.2" clip-path="url(#terminal-601973755-line-0)">▎</text><text class="terminal-601973755-r3" x="1220" y="20" textLength="12.2" clip-path="url(#terminal-601973755-line-0)">
</text><text class="terminal-601973755-r1" x="0" y="44.4" textLength="12.2" clip-path="url(#terminal-601973755-line-1)">▊</text><text class="terminal-601973755-r4" x="24.4" y="44.4" textLength="36.6" clip-path="url(#terminal-601973755-line-1)">1&#160;&#160;</text><text class="terminal-601973755-r5" x="61" y="44.4" textLength="183.0" clip-path="url(#terminal-601973755-line-1)">#&#160;在此输入代码&#160;</text><text class="terminal-601973755-r2" x="1207.8" y="44.4" textLength="12.2" clip-path="url(#terminal-601973755-line-1)">▎</text><text class="terminal-601973755-r3" x="1220" y="44.4" textLength="12.2" clip-path="url(#terminal-601973755-line-1)">
</text><text class="terminal-601973755-r1" x="0" y="68.8" textLength="12.2" clip-path="url(#terminal-601973755-line-2)">▊</text><text class="terminal-601973755-r6" x="24.4" y="68.8" textLength="36.6" clip-path="url(#terminal-601973755-line-2)">2&#160;&#160;</text><text class="terminal-601973755-r2" x="1207.8" y="68.8" textLength="12.2" clip-path="url(#terminal-601973755-line-2)">▎</text><text class="terminal-601973755-r3" x="1220" y="68.8" textLength="12.2" clip-path="url(#terminal-601973755-line-2)">
</text><text class="terminal-601973755-r1" x="0" y="93.2" textLength="12.2" clip-path="url(#terminal-601973755-line-3)">▊</text><text class="terminal-601973755-r2" x="1207.8" y="93.2" textLength="12.2" clip-path="url(#terminal-601973755-line-3)">▎</text><text class="terminal-601973755-r3" x="1220" y="93.2" textLength="12.2" clip-path="url(#terminal-601973755-line-3)">
</text><text class="terminal-601973755-r1" x="0" y="117.6" textLength="12.2" clip-path="url(#terminal-601973755-line-4)">▊</text><text class="terminal-601973755-r2" x="1207.8" y="117.6" textLength="12.2" clip-path="url(#terminal-601973755-line-4)">▎</text><text class="terminal-601973755-r3" x="1220" y="117.6" textLength="12.2" clip-path="url(#terminal-601973755-line-4)">
</text><text class="terminal-601973755-r1" x="0" y="142" textLength="12.2" clip-path="url(#terminal-601973755-line-5)">▊</text><text class="terminal-601973755-r2" x="1207.8" y="142" textLength="12.2" clip-path="url(#terminal-601973755-line-5)">▎</text><text class="terminal-601973755-r3" x="1220" y="142" textLength="12.2" clip-path="url(#terminal-601973755-line-5)">
</text><text class="terminal-601973755-r1" x="0" y="166.4" textLength="12.2" clip-path="url(#terminal-601973755-line-6)">▊</text><text class="terminal-601973755-r2" x="1207.8" y="166.4" textLength="12.2" clip-path="url(#terminal-601973755-line-6)">▎</text><text class="terminal-601973755-r3" x="1220" y="166.4" textLength="12.2" clip-path="url(#terminal-601973755-line-6)">
</text><text class="terminal-601973755-r1" x="0" y="190.8" textLength="12.2" clip-path="url(#terminal-601973755-line-7)">▊</text><text class="terminal-601973755-r2" x="1207.8" y="190.8" textLength="12.2" clip-path="url(#terminal-601973755-line-7)">▎</text><text class="terminal-601973755-r3" x="1220" y="190.8" textLength="12.2" clip-path="url(#terminal-601973755-line-7)">
</text><text class="terminal-601973755-r1" x="0" y="215.2" textLength="12.2" clip-path="url(#terminal-601973755-line-8)">▊</text><text class="terminal-601973755-r2" x="1207.8" y="215.2" textLength="12.2" clip-path="url(#terminal-601973755-line-8)">▎</text><text class="terminal-601973755-r3" x="1220" y="215.2" textLength="12.2" clip-path="url(#terminal-601973755-line-8)">
</text><text class="terminal-601973755-r1" x="0" y="239.6" textLength="12.2" clip-path="url(#terminal-601973755-line-9)">▊</text><text class="terminal-601973755-r2" x="1207.8" y="239.6" textLength="12.2" clip-path="url(#terminal-601973755-line-9)">▎</text><text class="terminal-601973755-r3" x="1220" y="239.6" textLength="12.2" clip-path="url(#terminal-601973755-line-9)">
</text><text class="terminal-601973755-r1" x="0" y="264" textLength="12.2" clip-path="url(#terminal-601973755-line-10)">▊</text><text class="terminal-601973755-r2" x="1207.8" y="264" textLength="12.2" clip-path="url(#terminal-601973755-line-10)">▎</text><text class="terminal-601973755-r3" x="1220" y="264" textLength="12.2" clip-path="url(#terminal-601973755-line-10)">
</text><text class="terminal-601973755-r1" x="0" y="288.4" textLength="12.2" clip-path="url(#terminal-601973755-line-11)">▊</text><text class="terminal-601973755-r2" x="1207.8" y="288.4" textLength="12.2" clip-path="url(#terminal-601973755-line-11)">▎</text><text class="terminal-601973755-r3" x="1220" y="288.4" textLength="12.2" clip-path="url(#terminal-601973755-line-11)">
</text><text class="terminal-601973755-r1" x="0" y="312.8" textLength="12.2" clip-path="url(#terminal-601973755-line-12)">▊</text><text class="terminal-601973755-r2" x="1207.8" y="312.8" textLength="12.2" clip-path="url(#terminal-601973755-line-12)">▎</text><text class="terminal-601973755-r3" x="1220" y="312.8" textLength="12.2" clip-path="url(#terminal-601973755-line-12)">
</text><text class="terminal-601973755-r1" x="0" y="337.2" textLength="12.2" clip-path="url(#terminal-601973755-line-13)">▊</text><text class="terminal-601973755-r2" x="1207.8" y="337.2" textLength="12.2" clip-path="url(#terminal-601973755-line-13)">▎</text><text class="terminal-601973755-r3" x="1220" y="337.2" textLength="12.2" clip-path="url(#terminal-601973755-line-13)">
</text><text class="terminal-601973755-r1" x="0" y="361.6" textLength="12.2" clip-path="url(#terminal-601973755-line-14)">▊</text><text class="terminal-601973755-r2" x="1207.8" y="361.6" textLength="12.2" clip-path="url(#terminal-601973755-line-14)">▎</text><text class="terminal-601973755-r3" x="1220" y="361.6" textLength="12.2" clip-path="url(#terminal-601973755-line-14)">
</text><text class="terminal-601973755-r1" x="0" y="386" textLength="12.2" clip-path="url(#terminal-601973755-line-15)">▊</text><text class="terminal-601973755-r2" x="1207.8" y="386" textLength="12.2" clip-path="url(#terminal-601973755-line-15)">▎</text><text class="terminal-601973755-r3" x="1220" y="386" textLength="12.2" clip-path="url(#terminal-601973755-line-15)">
</text><text class="terminal-601973755-r1" x="0" y="410.4" textLength="12.2" clip-path="url(#terminal-601973755-line-16)">▊</text><text class="terminal-601973755-r2" x="1207.8" y="410.4" textLength="12.2" clip-path="url(#terminal-601973755-line-16)">▎</text><text class="terminal-601973755-r3" x="1220" y="410.4" textLength="12.2" clip-path="url(#terminal-601973755-line-16)">
</text><text class="terminal-601973755-r1" x="0" y="434.8" textLength="12.2" clip-path="url(#terminal-601973755-line-17)">▊</text><text class="terminal-601973755-r2" x="1207.8" y="434.8" textLength="12.2" clip-path="url(#terminal-601973755-line-17)">▎</text><text class="terminal-601973755-r3" x="1220" y="434.8" textLength="12.2" clip-path="url(#terminal-601973755-line-17)">
</text><text class="terminal-601973755-r1" x="0" y="459.2" textLength="12.2" clip-path="url(#terminal-601973755-line-18)">▊</text><text class="terminal-601973755-r2" x="1207.8" y="459.2" textLength="12.2" clip-path="url(#terminal-601973755-line-18)">▎</text><text class="terminal-601973755-r3" x="1220" y="459.2" textLength="12.2" clip-path="url(#terminal-601973755-line-18)">
</text><text class="terminal-601973755-r1" x="0" y="483.6" textLength="12.2" clip-path="url(#terminal-601973755-line-19)">▊</text><text class="terminal-601973755-r2" x="1207.8" y="483.6" textLength="12.2" clip-path="url(#terminal-601973755-line-19)">▎</text><text class="terminal-601973755-r3" x="1220" y="483.6" textLength="12.2" clip-path="url(#terminal-601973755-line-19)">
</text><text class="terminal-601973755-r1" x="0" y="508" textLength="12.2" clip-path="url(#terminal-601973755-line-20)">▊</text><text class="terminal-601973755-r2" x="1207.8" y="508" textLength="12.2" clip-path="url(#terminal-601973755-line-20)">▎</text><text class="terminal-601973755-r3" x="1220" y="508" textLength="12.2" clip-path="url(#terminal-601973755-line-20)">
</text><text class="terminal-601973755-r1" x="0" y="532.4" textLength="12.2" clip-path="url(#terminal-601973755-line-21)">▊</text><text class="terminal-601973755-r2" x="1207.8" y="532.4" textLength="12.2" clip-path="url(#terminal-601973755-line-21)">▎</text><text class="terminal-601973755-r3" x="1220" y="532.4" textLength="12.2" clip-path="url(#terminal-601973755-line-21)">
</text><text class="terminal-601973755-r1" x="0" y="556.8" textLength="12.2" clip-path="url(#terminal-601973755-line-22)">▊</text><text class="terminal-601973755-r2" x="1207.8" y="556.8" textLength="12.2" clip-path="url(#terminal-601973755-line-22)">▎</text><text class="terminal-601973755-r3" x="1220" y="556.8" textLength="12.2" clip-path="url(#terminal-601973755-line-22)">
</text><text class="terminal-601973755-r1" x="0" y="581.2" textLength="12.2" clip-path="url(#terminal-601973755-line-23)">▊</text><text class="terminal-601973755-r2" x="1207.8" y="581.2" textLength="12.2" clip-path="url(#terminal-601973755-line-23)">▎</text><text class="terminal-601973755-r3" x="1220" y="581.2" textLength="12.2" clip-path="url(#terminal-601973755-line-23)">
</text><text class="terminal-601973755-r1" x="0" y="605.6" textLength="12.2" clip-path="url(#terminal-601973755-line-24)">▊</text><text class="terminal-601973755-r2" x="1207.8" y="605.6" textLength="12.2" clip-path="url(#terminal-601973755-line-24)">▎</text><text class="terminal-601973755-r3" x="1220" y="605.6" textLength="12.2" clip-path="url(#terminal-601973755-line-24)">
</text><text class="terminal-601973755-r1" x="0" y="630" textLength="12.2" clip-path="url(#terminal-601973755-line-25)">▊</text><text class="terminal-601973755-r2" x="1207.8" y="630" textLength="12.2" clip-path="url(#terminal-601973755-line-25)">▎</text><text class="terminal-601973755-r3" x="1220" y="630" textLength="12.2" clip-path="url(#terminal-601973755-line-25)">
</text><text class="terminal-601973755-r1" x="0" y="654.4" textLength="12.2" clip-path="url(#terminal-601973755-line-26)">▊</text><text class="terminal-601973755-r2" x="12.2" y="654.4" textLength="1195.6" clip-path="url(#terminal-601973755-line-26)">▁▁▁▁▁▁▁▁▁▁▁▁▁▁▁▁▁▁▁▁▁▁▁▁▁▁▁▁▁▁▁▁▁▁▁▁▁▁▁▁▁▁▁▁▁▁▁▁▁▁▁▁▁▁▁▁▁▁▁▁▁▁▁▁▁▁▁▁▁▁▁▁▁▁▁▁▁▁▁▁▁▁▁▁▁▁▁▁▁▁▁▁▁▁▁▁▁▁</text><text class="terminal-601973755-r2" x="1207.8" y="654.4" textLength="12.2" clip-path="url(#terminal-601973755-line-26)">▎</text><text class="terminal-601973755-r3" x="1220" y="654.4" textLength="12.2" clip-path="url(#terminal-601973755-line-26)">
</text><text class="terminal-601973755-r7" x="0" y="678.8" textLength="195.2" clip-path="url(#terminal-601973755-line-27)">▔▔▔▔▔▔▔▔▔▔▔▔▔▔▔▔</text><text class="terminal-601973755-r3" x="1220" y="678.8" textLength="12.2" clip-path="url(#terminal-601973755-line-27)">
</text><text class="terminal-601973755-r8" x="12.2" y="703.2" textLength="170.8" clip-path="url(#terminal-601973755-line-28)">&#160;获取选中文字&#160;</text><text class="terminal-601973755-r3" x="1220" y="703.2" textLength="12.2" clip-path="url(#terminal-601973755-line-28)">
</text><text class="terminal-601973755-r9" x="0" y="727.6" textLength="195.2" clip-path="url(#terminal-601973755-line-29)">▁▁▁▁▁▁▁▁▁▁▁▁▁▁▁▁</text>
    </g>
    </g>
</svg>
